REM DIRINDEX 1\2,1\3,1\4,1\5,1\6
REM DIRNAME folder01,folder02,folder03,folder04,folder05,folder06
TITLE ""
FILE "Disc3Track63.mp3" MP3
  TRACK 01 AUDIO
    TITLE "3:cjc030_05952"
    INDEX 01 00:00:00
  TRACK 02 AUDIO
    TITLE "0:"
    INDEX 01 00:01:13
  TRACK 03 AUDIO
    TITLE "4:cjc030_05953"
    INDEX 01 00:01:22
  TRACK 04 AUDIO
    TITLE "0:"
    INDEX 01 00:02:08
  TRACK 05 AUDIO
    TITLE "5:cjc030_05954"
    INDEX 01 00:02:16
  TRACK 06 AUDIO
    TITLE "0:"
    INDEX 01 00:03:37
  TRACK 07 AUDIO
    TITLE "3:cjc030_05955"
    INDEX 01 00:04:19
  TRACK 08 AUDIO
    TITLE "0:"
    INDEX 01 00:05:54
  TRACK 09 AUDIO
    TITLE "4:cjc030_05956"
    INDEX 01 00:05:61
  TRACK 10 AUDIO
    TITLE "0:"
    INDEX 01 00:06:53
  TRACK 11 AUDIO
    TITLE "5:cjc030_05957"
    INDEX 01 00:06:63
  TRACK 12 AUDIO
    TITLE "0:"
    INDEX 01 00:08:19
  TRACK 13 AUDIO
    TITLE "6:cjc030_05958"
    INDEX 01 00:08:34
  TRACK 14 AUDIO
    TITLE "0:"
    INDEX 01 00:10:19
  TRACK 15 AUDIO
    TITLE "3:cjc030_05959"
    INDEX 01 00:10:66
  TRACK 16 AUDIO
    TITLE "0:"
    INDEX 01 00:12:28
  TRACK 17 AUDIO
    TITLE "4:cjc030_05960"
    INDEX 01 00:12:38
  TRACK 18 AUDIO
    TITLE "0:"
    INDEX 01 00:13:22
  TRACK 19 AUDIO
    TITLE "5:cjc030_05961"
    INDEX 01 00:13:30
  TRACK 20 AUDIO
    TITLE "0:"
    INDEX 01 00:14:70
  TRACK 21 AUDIO
    TITLE "6:cjc030_05962"
    INDEX 01 00:15:07
  TRACK 22 AUDIO
    TITLE "0:"
    INDEX 01 00:20:37
  TRACK 23 AUDIO
    TITLE "3:cjc030_05963"
    INDEX 01 00:21:11
  TRACK 24 AUDIO
    TITLE "0:"
    INDEX 01 00:22:38
  TRACK 25 AUDIO
    TITLE "4:cjc030_05964"
    INDEX 01 00:22:46
  TRACK 26 AUDIO
    TITLE "0:"
    INDEX 01 00:24:61
  TRACK 27 AUDIO
    TITLE "5:cjc030_05965"
    INDEX 01 00:24:67
  TRACK 28 AUDIO
    TITLE "0:"
    INDEX 01 00:26:22
  TRACK 29 AUDIO
    TITLE "3:cjc030_05966"
    INDEX 01 00:27:04
  TRACK 30 AUDIO
    TITLE "0:"
    INDEX 01 00:28:31
  TRACK 31 AUDIO
    TITLE "4:cjc030_05967"
    INDEX 01 00:28:39
  TRACK 32 AUDIO
    TITLE "0:"
    INDEX 01 00:31:12
  TRACK 33 AUDIO
    TITLE "5:cjc030_05968"
    INDEX 01 00:31:20
  TRACK 34 AUDIO
    TITLE "0:"
    INDEX 01 00:32:45
  TRACK 35 AUDIO
    TITLE "3:cjc030_05969"
    INDEX 01 00:33:24
  TRACK 36 AUDIO
    TITLE "0:"
    INDEX 01 00:34:40
  TRACK 37 AUDIO
    TITLE "4:cjc030_05970"
    INDEX 01 00:34:49
  TRACK 38 AUDIO
    TITLE "0:"
    INDEX 01 00:36:29
  TRACK 39 AUDIO
    TITLE "5:cjc030_05971"
    INDEX 01 00:36:36
  TRACK 40 AUDIO
    TITLE "0:"
    INDEX 01 00:37:50
  TRACK 41 AUDIO
    TITLE "3:cjc030_05972"
    INDEX 01 00:38:35
  TRACK 42 AUDIO
    TITLE "0:"
    INDEX 01 00:39:43
  TRACK 43 AUDIO
    TITLE "4:cjc030_05973"
    INDEX 01 00:39:51
  TRACK 44 AUDIO
    TITLE "0:"
    INDEX 01 00:41:45
  TRACK 45 AUDIO
    TITLE "5:cjc030_05974"
    INDEX 01 00:41:53
  TRACK 46 AUDIO
    TITLE "0:"
    INDEX 01 00:42:59
  TRACK 47 AUDIO
    TITLE "6:cjc030_05975"
    INDEX 01 00:42:74
  TRACK 48 AUDIO
    TITLE "0:"
    INDEX 01 00:44:48
  TRACK 49 AUDIO
    TITLE "3:cjc030_05976"
    INDEX 01 00:45:22
  TRACK 50 AUDIO
    TITLE "0:"
    INDEX 01 00:46:33
  TRACK 51 AUDIO
    TITLE "4:cjc030_05977"
    INDEX 01 00:46:41
  TRACK 52 AUDIO
    TITLE "0:"
    INDEX 01 00:48:53
  TRACK 53 AUDIO
    TITLE "5:cjc030_05978"
    INDEX 01 00:48:63
  TRACK 54 AUDIO
    TITLE "0:"
    INDEX 01 00:49:74
  TRACK 55 AUDIO
    TITLE "6:cjc030_05979"
    INDEX 01 00:50:11
  TRACK 56 AUDIO
    TITLE "0:"
    INDEX 01 00:52:02
  TRACK 57 AUDIO
    TITLE "3:cjc030_05980"
    INDEX 01 00:52:49
  TRACK 58 AUDIO
    TITLE "0:"
    INDEX 01 00:53:66
  TRACK 59 AUDIO
    TITLE "4:cjc030_05981"
    INDEX 01 00:54:01
  TRACK 60 AUDIO
    TITLE "0:"
    INDEX 01 00:54:74
  TRACK 61 AUDIO
    TITLE "5:cjc030_05982"
    INDEX 01 00:55:06
  TRACK 62 AUDIO
    TITLE "0:"
    INDEX 01 00:56:24
  TRACK 63 AUDIO
    TITLE "3:cjc030_05983"
    INDEX 01 00:56:72
  TRACK 64 AUDIO
    TITLE "0:"
    INDEX 01 00:57:72
  TRACK 65 AUDIO
    TITLE "4:cjc030_05984"
    INDEX 01 00:58:05
  TRACK 66 AUDIO
    TITLE "0:"
    INDEX 01 00:59:53
  TRACK 67 AUDIO
    TITLE "5:cjc030_05985"
    INDEX 01 00:59:61
  TRACK 68 AUDIO
    TITLE "0:"
    INDEX 01 01:00:62
  TRACK 69 AUDIO
    TITLE "6:cjc030_05986"
    INDEX 01 01:01:01
  TRACK 70 AUDIO
    TITLE "0:"
    INDEX 01 01:04:25
  TRACK 71 AUDIO
    TITLE "3:cjc030_05987"
    INDEX 01 01:04:72
  TRACK 72 AUDIO
    TITLE "0:"
    INDEX 01 01:06:00
  TRACK 73 AUDIO
    TITLE "4:cjc030_05988"
    INDEX 01 01:06:08
  TRACK 74 AUDIO
    TITLE "0:"
    INDEX 01 01:07:14
  TRACK 75 AUDIO
    TITLE "5:cjc030_05989"
    INDEX 01 01:07:23
  TRACK 76 AUDIO
    TITLE "0:"
    INDEX 01 01:08:23
  TRACK 77 AUDIO
    TITLE "3:cjc030_05990"
    INDEX 01 01:08:74
  TRACK 78 AUDIO
    TITLE "0:"
    INDEX 01 01:10:16
  TRACK 79 AUDIO
    TITLE "4:cjc030_05991"
    INDEX 01 01:10:22
  TRACK 80 AUDIO
    TITLE "0:"
    INDEX 01 01:12:26
  TRACK 81 AUDIO
    TITLE "5:cjc030_05992"
    INDEX 01 01:12:34
  TRACK 82 AUDIO
    TITLE "0:"
    INDEX 01 01:13:51
  TRACK 83 AUDIO
    TITLE "6:cjc030_05993"
    INDEX 01 01:13:65
  TRACK 84 AUDIO
    TITLE "0:"
    INDEX 01 01:16:61
  TRACK 85 AUDIO
    TITLE "3:cjc030_05994"
    INDEX 01 01:17:33
  TRACK 86 AUDIO
    TITLE "0:"
    INDEX 01 01:18:62
  TRACK 87 AUDIO
    TITLE "4:cjc030_05995"
    INDEX 01 01:18:74
  TRACK 88 AUDIO
    TITLE "0:"
    INDEX 01 01:20:63
  TRACK 89 AUDIO
    TITLE "5:cjc030_05996"
    INDEX 01 01:20:71
  TRACK 90 AUDIO
    TITLE "0:"
    INDEX 01 01:22:27
  TRACK 91 AUDIO
    TITLE "6:cjc030_05997"
    INDEX 01 01:22:39
  TRACK 92 AUDIO
    TITLE "0:"
    INDEX 01 01:26:21
  TRACK 93 AUDIO
    TITLE "3:cjc030_05998"
    INDEX 01 01:26:72
  TRACK 94 AUDIO
    TITLE "0:"
    INDEX 01 01:28:27
  TRACK 95 AUDIO
    TITLE "4:cjc030_05999"
    INDEX 01 01:28:37
  TRACK 96 AUDIO
    TITLE "0:"
    INDEX 01 01:29:39
  TRACK 97 AUDIO
    TITLE "5:cjc030_06000"
    INDEX 01 01:29:46
  TRACK 98 AUDIO
    TITLE "0:"
    INDEX 01 01:31:04
